<svg version="1.2" xmlns="http://www.w3.org/2000/svg" viewBox="0 0 8000 2000" width="8000" height="2000">
	<title>vecteezy_horizontal-view-of-asphalt-road-background-of-plain_</title>
	<style>
		.s0 { fill: #f4f4f4 } 
		.s1 { fill: #000000 } 
		.s2 { fill: #343434 } 
		.s3 { fill: #272727 } 
		.s4 { fill: #3d3d3d } 
		.s5 { fill: #555555 } 
		.s6 { fill: #ddc492 } 
		.s7 { fill: #d2d2d2 } 
		.s8 { fill: #b5b5b5 } 
		.s9 { fill: #e3e3e3 } 
		.s10 { fill: #c4c4c4 } 
	</style>
	<g id="Layer 6">
		<path id="&lt;Path&gt;" class="s0" d="m1444.1 938.8c-16.7-10.8-34.6-25.6-53.9-30.8-7.6-2-20.1-0.6-26.8-4.1-5.2-2.7-2.2-7.4-2.7-13.3-1.1-11.4-9.7-23.1-19.3-28.9-7-4.1-14.1-3.8-22.2-3.8-3.9 0-8.2 0.6-12.1 0.3-16.6-1-33.6-14.9-47.3-23.2-18.9-11.4-38.9-26.3-61.7-26.8-5.1-0.1-10.4 0.5-15.5 0.5-10.4 0.1-20.7 0-31.1 0-5.8 0-11.6 0.2-17.3 0.1-2.8-0.1-7.1-1-9.6-0.5-6.7 1.1-7.4 5.7-12.1 9.7-7.2 6.3-16.6 3.9-26.2 3.8-10-0.2-20.7 0.8-30.5 3.3-10.5 2.6-11.5 14.5-19.3 21.4-7.1 6.2-16.6 7.9-24.7 12.1-13.5 6.9-18.8 17.3-16.5 32.3 1.2 8.5 14.1 21.3 9.6 29.3-0.8 1.5-4.7 3-6 4.7-1.3 1.7-2 4.8-3 6.8-3.1 6.4-4 8.3-4 15.9 0 11.4 2.8 25.5 11.9 33.5 7.6 6.6 21.2 10.2 20.1 22.5-1 11.3-13 12.2-18.9 20.1-6.3 8.3-9.2 14.4-19.3 19.6-7.4 3.7-10.9 7.6-19.2 7.9-8.9 0.4-15.5 0-24-3.5-14.8-6.1-27.5-17-40.7-25.5-4.2-2.7-9.1-5.8-14.2-3.2q0.3 2.9-1.1 5.4c-15.3 2.1-27.4-0.7-42.2-4.5-4.8-1.3-15.8-3.6-21.1-1.7-4.3 1.7-3.4 4.2-6 6.8-3.7 3.9-3.8 3.3-10.7 3.2-9.4-0.1-18.9 0.9-28.2-0.6-6.9-1.1-13.4-4.5-20.4-5.3-8.1-1-6.2-1.2-7.5 5.7-1 5.2 0.3 11.3 0.1 16.7-0.4 11.4-13 14.2-22.5 16.4-5 1.1-4.5 0.8-9.8 3.1-6.7 2.9-15.7 2.9-19.8 9.8-2.1 3.6-1.2 7.8-4 10.8-3.7 3.9-11.8 4.8-16.5 7-16.6 7.8-31.9 14.2-49.9 18.5-7.1 1.6-35.3 13.4-40.7 6.3 2.3-11.4 8.2-20.8 0.9-30.8q-5.5-4.5-11.2-8.4-23.3-14.4-48.7-24.1c-17.2-7.6-33.5-17.3-50.6-25.1-10.4-4.7-19.1-0.9-29.4-3.4-9.6-2.4-15.6-12.3-23-18.2-1.4-1.1-18.2-9.6-11.1-10.1-8.9 2.8-21.7-4.9-29.2-9-13.1-7.2-24.5-17-37.8-23.8-9-4.5-21.9-10.3-32.1-10.9-2.3-0.1-6.8-0.8-8.9 0.7-1.1 0.7-0.1 4.3-1.1 5.2-8.3 8-27.3 4-37 4-19.7-0.1-45.1-3-65.1-0.2-3.5 0.5-5.8 1.4-8.9 2.6-12.4 4.7-4.6 14.6-9.8 23.6-1 1.7-4.4 5.2-5.5 6.5-2.8 3.5-3.8 5.8-7.9 8.5-5.6 3.6-12.2 9.1-18.3 11.7-6.4 2.7-13.7 1.8-19.9 5-6.9 3.6-9.7 7.7-11.1 15.7-1.4 8.1 0.3 11.5-9.7 11.9-23.9 1-47.9 0.8-71.6 4.8-10.4 1.7-14.9 2.3-17.2 14.4-1.8 10-5 14.9-12.7 21.9-14.4 13.1-2 23.7 5.5 37.2-6.4 8-14.7 10.3-15.7 21.4-0.4 5.2-1.2 16.3 0.3 21.6 1.9 6.9 8.7 15.5 14.4 19.6 4.3 3.1 7.6 6.7 11.7 9.8 5.1 3.8 15.1 2.9 18.2 9.5 7.1 15.2-19.7 15.3-26.7 19.7-8.5 5.5-4.8 22.1-4.8 31.5 0 10.3-2.2 23.2 1.7 32.7 2.3 5.9 8 13.2 12.7 17.3q4.7 0.4 7.3 4.6 0.8 3.4 2.5 6.5c4.6 7.4 14.3 7.2 13.7 17.2-0.3 4.9-8.1 13.8-2.9 18.1h2500.5c0.5-8 4.5-15.7 10.2-21.4 6.1-6.3 15.5-7.3 21.3-13.8 5.3-5.8 1.9-7.3 3.1-13.6 1.4-7.7 6.5-12.8 6.9-20.9 0.9-18.3-17.8-23-26.5-35.8-4.7-6.8-6.1-15.1-9.4-22.4-2.9-6.5-5.6-9.5-5.7-16.8-0.4-17-2.3-28.2-10.1-44.5-6-12.5-12-17.4-23.8-23.7-13.8-7.3-27-16.9-41.2-23-16.6-7.2-36.4-3.3-53.4 0.8-16.9 4.1-29.8 9.2-47.5 9.1-6.7-0.1-25.6-3.8-30 2.9q-1 4.6 0.1 9.2-1.4 8.2-8.9 12c-7.4 4.7-16 5.3-24.3 5.4-5.8 0.2-11.6-0.1-17.3 0-4.6 0-15.5 2.2-19.5-0.5-5.7-3.7-3.6-9.5-3.6-15.7q-0.2-6.2-0.3-12.5 0.4-6.9 5.2-11.6c5-17.1-0.2-27-14.4-36-8-5-12.8-6.9-17-16.5-3.6-8.3-5.6-9.9-12.3-17-5.9-6.1-16.3-8.2-21.2-14.6q-5-9.4-4.3-20.2-0.7-13.2-6-25.3c-3.3-7.8-39.6-64.7-49.7-51.4-13.5-14.2-24.9-30.5-38.5-44.8-10.8-11.4-21.2-25-35.1-32.6-20.6-11.4-41.4-9.3-63.9-9.3q-26.3 0-52.7 0c-13 0-27.8-1.3-39.7 5.8-8.9 5.2-10.6 15.7-13.9 24.7-2 5.5-5.1 10.4-7.2 15.8-3.8 10.1-4.9 21.3-9.5 31.3-6.2 13.3-23.4 15.6-35.9 21.7-14.4 6.9-29.1 1.1-25.1 22.7 2.9 15 9.8 29.3 14.9 43.5 3 8.3 6 16.5 9.6 24.4 0.5 1.2 4.5 8.1 4.5 10.7 0.5 12.6-16.4 23.6-25.7 28.6-26.7 14-51.7 34.7-80.7 44.3-17.9 6-40.7-7.4-48.7-24.8-3.7-8 0.9-17.5-3-25.8-4.3-9.2-10.8-17.9-15.5-27.2-4.7-9.3-8.3-17.2-11.1-27.6-7.1-26.5-27.8-40.2-51.4-51.5-12.9-6.2-27.8-7.4-41.2-2.1-16.7 6.6-32.1 13.4-50 13.3-10.3-0.1-20.7-0.1-31-0.1-7.9 0.1-16.4 2.5-21.2-4.7-4.5-6.8-6.4-13.8-12.5-19.9-6.1-6.2-13.4-10.9-20.6-15.6z"/>
		<path id="&lt;Path&gt;" class="s0" d="m5375 1183.7c-10.3-8-15.2-5.7-28-10-12-4.1-16.2-6.5-30.9-6.4-9.7 0.1-22.4 2.3-31.5 0-5.4-1.4-6.1-3.6-10.4-5.4-25.9-10.7-68.7-18.1-99.4-19.1-35-1.1-69.4 4.6-103.9 4.3-23.4-0.2-70.9 7-85.3-10.6-4.2-5.1 0-9.3-2-13.9-2.2-5.1-8.6-8-13.5-11.3-14.5-9.7-29.4-13.9-48.4-16.4-24.4-3.2-40.7 1.6-63.1 8.5-34.5 10.6-75.4-2.2-108.5-10.4-0.3-6.5 3.1-15.1 0.1-21.2-2.5-5.1-10.3-8.4-15.7-12.2-4.4-3.2-11.7-6.6-15.5-10.4-2.2-2.2-3.3-6.8-5.5-8.5-5.2-3.8-17.2-5.8-23.5-7.8-14.3-4.3-30.4-4.5-45.1-8-11.7-2.9-22.4-6.1-33.9-8.2-6.6-1.1-13-3.5-19.4-5.2-8.1-2.1-18.4-4-32.2-19.4-47.9-8.2-95.8-20.6-145-20.4-9.5 0.1-21.3-1.7-30.6 0-10.5 1.8-3.3-0.1-11.1 3.9-6.4 3.2-7.5 7-17.1 8.2-26.3 3.3-58.7-1-72.5 22.4-4.3 7.3-1.7 14.8-2.3 22.6-0.5 8.1-4.5 15.8-5.8 23.9-15.2 3.5-36.2 0.3-52.2 0.6-19.3 0.2-25.2-2.5-40.9-11.6-7-4-8.3-4.6-17.7-4.8-20.7-0.3-41.4 0.1-62 0.1-17.6 0-41.2-3.1-58 0.7 0 9.7-12.8 7.6-21.5 7.4-16.3-0.3-22.1-0.4-30.7 10.3-4.6 5.8-6.7 8.8-15.9 12.3-7.1 2.6-20.9 9.1-29 5.4-11.6-5.4-7.3-27.4-7.2-36.1 0.2-12.1-4.5-16-15.2-25.7-24.6-22.3-51.6-35.3-85.9-45.5-17.9-5.3-42.2-2.2-61.5-2.2-14.4 0-40.1-4.1-53.2 0.8-8.4 3.1-12.5 8.8-23.6 10.6-9.7 1.6-42-3.7-49.1 1.4-4.2 3 0.2 17.4-0.3 21.6-1.3 10.3-8.1 20.2-11.5 30.3-11.1 2.1-23.2-1.2-34.2 1.1-0.7 18.4-38.4 13.6-46.4 28.9-2.7 5 1.1 10.6-2 15.6-1.8 2.9-7.2 3.7-9.6 6.3-2.5 2.6-3 6.3-4.6 9.4-22.7-0.5-44.7-3.8-67.5-3.7-13.4 0-26.9 0.6-40.3 0.1-9.2-0.3-27.7-9.2-32.4-0.4-2.5 4.7 4 7.3-1.1 11.8q-9.5 0.9-19 1.5-8 2.1-15.4 5c-6.9 1.9-14.3 1-20.7 3.1-7.5 2.3-10.3 6.7-19.5 7.7-6.5 0.8-14.4-0.6-20.9-0.3-8.5 0.3-7.8 1.9-14.2 3.6-20.2 5.2-14.5 6.8-19 20-1 2.9-3.5 5.1-4.1 9-0.9 5.3 0.9 10.5-0.1 15.8-16.5 3-30.1-0.3-45.1-4.5-10.4-2.9-19.9-3.1-32.1-3.1-30.6 0-60.4-0.9-90.2 3.6-17.3 2.6-29.8 8.1-46.5 10.7-16.6 2.7-32.4 1.3-49.2 1.9-8.7 0.3-12.6 2.7-20.3 5.3-11.8 4.1-23.5 3.1-36.2 3-17.3-0.1-42.4-3.9-57 5.2 2.7 3.2 29.1 6.4 36 7.1 15 1.5 31.4-0.1 46.6-0.1q53.2 0 106.4 0 109.5 0 219 0c15.2 0 30.6 0.8 45.7 0.2 10.2-0.4 18.8-3.8 28.9-4.5 9.2-0.6 19 0.2 28.3 0.2 15.8 0.1 31.6-0.1 47.5-0.1 19.1 0.2 33.1 8.2 52 8.4 57.3 0.7 114.8-0.1 172.1-0.1 16.8 0 30.2-0.3 45.9 3.6 15.4 3.8 31 7.9 46.5 10.7 15.3 2.7 31.1 2.1 47 2 18.1-0.2 37.4 4.8 55.4 7.3 36.3 4.8 74.4-0.7 110.8 4 22.3 3 47.3 0.9 69.8 0.9q39.7 0 79.4 0 33.7 0 67.5 0c19.7 0 44 2.9 62.8-1.7 14.6-3.6 26.1-12.7 41.3-14.8 18.6-2.5 40.9 0.2 59.8 0.2 42.3 0 84.5 0.1 126.7 0 18.8 0 35.9 3.4 54.2 4.3 8.4 0.3 17-0.2 25.3-0.1 5.4 0.1 10.8 0.5 16.1-0.2 9.1-1.2 11.2-5.1 17.9-8.3 26.2-12.6 75.5-0.5 102.8 3.3 26.3 3.7 50.6 11.9 76.4 16.5 27.6 5 60.3 0.7 88.7 0.8 20.9 0.1 42 1.6 62.2-4 10.3-2.9 15.8-4.3 26.6-4.1 63.2 0.9 126.5 0 189.7 0q33.8 0 67.7 0c18.8 0 42.9 3.1 61.1-0.6-1.6-25.3 61.7-15.7 80.7-15.7 11.9 0 41.6 4.1 49.2-3.1-13.9-3.4-20.4-5.1-31-13.3z"/>
		<path id="&lt;Path&gt;" class="s0" d="m8000 933.7c-6.4-0.7-12.8-1.2-19.3-1.1-39.5 0.2-79.4-2.4-118.8-0.2-30.4 1.7-47 41.1-66.2 60.8-6.4 6.6-14.5 14.4-22.8 18.8-9.2 5-15.2 1.9-22.3 10.6-8.9 10.9-5.2 28-5.2 41.7 0 6.5 3.2 22.9 0.4 28.4-4.5 8.9-8.5 2.6-17.2 4.7-7.2 1.6-12 8.1-20.2 10.2-7.8 1.9-23.8 3.6-31.3 0.8-12.2-4.6-14.5-10.7-30.9-11-12.8-0.1-18.7-2.2-30.2-4.8-7-1.6-14.2-1.8-19.3 2.6-3 2.5-2.3 7.7-5.6 10.4-5.7 4.9-10.7 2.1-17.4 2.9-15.9 1.8-39.6 3.6-48.4 16.5-5.5 8.1-5.8 12.5-17.8 15.6-10 2.5-21 1-31.3 1-21.7 0.1-29.1-3.4-45.6-15.1-14.3-10.1-34.5-15.6-51.2-20.6-26-7.8-48.5-30.9-64.4-52-14.9-19.9-33.9-35.2-54.3-48.6-5.5-3.5-9.5-8.8-15.9-11.1-11.1-3.9-12.6 1.8-21.4 4.7-24 7.6-49.1-10.4-72.3-11.4-26.4-1.2-53.2 0.1-79.6 0.1-21.6 0-48.6-4.8-68 5.4-15.8 8.1-17 21.3-32.3 28.8-20.2 10-42.1 13.9-63.6 20.7-13.9 4.3-39.5 15-43 30.2-2.9 13 0.4 30.7 0.3 44.2-0.2 15.7 6.3 25.1 5.6 41.1-1.4 32.5-26.4 21.6-50.2 17.9-15.6-2.4-30.3-3.7-43.2 5.5-11.6 8.4-35.8 13.3-43.6 25.9-8.4 13.7 16.5 29.6 24.5 38.5 16.5 18.1 20.1 43.8-11 49.7-15 2.9-35 1.8-48.1-5.8-9.8-5.6-12.4-11-18.9-19.2 0.6 0.9-12.4-13.3-12.3-13-5.1-13.1 2.4-16.9-11.4-27.1-15.7-11.6-26.1-15.6-45-17-12.5-1-22.4-8.9-34.8-11.9-10.4-2.6-19.6-7.5-31.2-4.9-11.4 2.6-11.7 3.2-10.7 16.6 0.6 8.6 8 19.3 4.9 27.1-2.2 5.6-12.4 11.7-17 16.7-9.4 10.2-6.2 18.8-12.8 29-11.9 18.1-38.4 18-55.9 24.2-21.7 7.7-66.9 10.7-73.4 34.7-2.5 9 0.1 23.9 0.3 33.5 0.2 14.5-1.7 16.6-11 27.3-7.1 8.2-18.9 17.2-17.1 29 1.7 11.3 16 13.5 9 26.3 29.2 15.2 65.3 10.9 97.4 10.8 25.4 0 50.7 0.1 76.1 0.1q129.7 0 259.4 0c57.1 0 114.2 0.3 171.3 0 76.4-0.5 151.4 8.2 227.7 11.3 78.6 3.1 156.9 5.5 235.7 5.2 63.8-0.3 127.3 6.1 191 5.7 91.1-0.6 182.2-0.2 273.3-0.2q51 0 102 0 2.3 0 4.5 0z"/>
	</g>
	<g id="Layer 4">
		<path id="&lt;Path&gt;" class="s1" d="m766 1102.5v-51.7l113.3-35.6-58.7-45.8-208.6 35.3-224.4 35.3-176.1 52.9-211.5 26.5v116.1h916l-36.7-100.4z"/>
		<path id="&lt;Path&gt;" class="s2" d="m4031.4 1135.1l-115.5-42.2h-141.3l-382.7-8.8c0 0-292.3-4.4-318.9-4.4-26.6 0-325.6 0-355 0-29.4 0-261-35.3-261-35.3h-399.4l-315.5-35.3c0 0-330.2-17.7-363.1-22.1-32.9-4.4-187.2-17.6-187.2-17.6h-264.2-110l58.7 45.8-113.3 35.6v51.7l113.3 32.6 36.7 100.4h3654.1l-345.4-100.4z"/>
		<path id="&lt;Path&gt;" class="s3" d="m4890.1 1140.2l-33.9-38.7 67.8-58.1c0 0-273.2 26.4-293.1 26.4-19.8 0-281 22.1-281 22.1h-308.1-122.9l115.5 42.2h190.3l345.4 100.4h734.7l-81.7-22z"/>
		<path id="&lt;Path&gt;" class="s4" d="m7999 1051.3l-245.4-19.6-212.6-30.8v80.3l-66.2 25.4 124.7 35.1-58.5 29.9-58.9 68.9h516.9z"/>
		<path id="&lt;Path&gt;" class="s1" d="m6976.8 1149.2l-286.1-30c0 0-227.5-13.6-293.5-0.4-66.1 13.1-161.5-13.5-205.5-0.3-44 13.2-286.1-26.9-322.8-35.8-36.7-8.8-344.8-26.9-374.2-40.2-29.3-13.3-278.8-0.4-278.8-0.4l-291.8-0.4-67.8 58 33.8 38.8 332.9 72.7 81.7 22.2 2064.3 3-135.1-27.4z"/>
		<path id="&lt;Path&gt;" class="s1" d="m7601.5 1140.7l-124.7-35.1 66.2-25.4v-80.3l-154 13.2c0 0-242.4 39.7-315.8 37.2-73.4-2.5-381.6 73.1-381.6 73.1l286.2 29.5 257.2 59.5 135.1 27.1h114l58.9-68.9z"/>
	</g>
	<g id="Layer 1">
		<path id="&lt;Path&gt;" class="s5" d="m0 1134.1l2838.4 36.8c0 0 2443.4-10.5 3470.7-10.5 1027.2 0 1690.9 10.5 1690.9 10.5v310.4h-8000z"/>
		<path id="&lt;Path&gt;" class="s6" d="m6870.6 1319.8c-11.3-5-23.6-8.5-32.6-9 10.7 3.1 21.5 6.2 32.6 9z"/>
		<path id="&lt;Path&gt;" class="s7" d="m166.2 1234.5c-104.6 6.3-166.2 10.1-166.2 10.1v47.5c27.9-5.9 53.8-15.5 80.4-23.9 30.8-9.6 58.6-20.1 85.8-33.7z"/>
		<path id="&lt;Path&gt;" class="s8" d="m8000 1339.3l-336.7-14.3c13.3 3.8 26.4 7.6 39.3 12.2 9.8 3.5 16.8 8.5 26.4 12 19 6.8 39.5 12.1 59.2 17.7q34.9 10.1 70.3 19.4 22.7 0.8 26.9 14.1c-26.6 4.8-53.9 3.5-81.2 3.3-27.7-0.2-63.4-6.1-88.2 3.7 14.3 3.6 30.9 6.1 44.1 11.5-12.2 3-32.5 1.2-45.5 1.1-100.2-0.5-201.2-13-300.4-22-36.4-3.4-76.3-5.8-110.1-10-38.9-4.8-76.8-9.5-115-17.7-22.1-4.8-43.1-12.5-65.5-16.5-8.6-1.6-17.5-1.1-26.1-2.1-12.8-1.5-24.5-6.6-37-8.9-8.9-1.6-17.7-1.7-26.7-3.2-17.4-2.8-31.2-2.3-49.7-2.4-38.2-0.4-76.9-7.9-113.5-17.4 13.7 6.1 25.9 14.2 29.2 21.7-22.1-2.4-45.6 5.2-67.8 7-22.2 1.9-44.2 3.8-66.5 4.1-16.8 0.2-34-1.5-50.7 0.1-28.7 2.8-54.8 7.7-84.3 7.6-45.8-0.1-91.7-1-137.4-0.3-4.6 0.1-58.3-1.5-47.2 7.5-17.1 4.1-40.3 0.7-58.3 0.7-28.2 0-56.8-1.3-84.9 0.7-0.8 14.3-72.1 7.5-85.8 7.4-50.3-0.3-104 1.9-153.1-6.2-15.6-2.5-30.4-1.8-46.4-1.9-30.6-0.1-62.1-3.1-91.3 4.4q2.7 6.9 3 14.1c-8.2 5.4-40.5 1-49.5 0.5-28.9-1.5-55.5-6-84-9.4-21.2-2.6-39.8-1.1-61.1-1.5-25.6-0.5-51-3.6-76.5-4.3-13.1-0.4-26.5 0.1-39.7 0.1-34.3 0.1-63.5-1.8-98.1-6.3-40-5.3-85.4-17.1-126.6-18-12.6-0.3-24.7 1.3-37.3 0.3-10.1-0.8-19.7-3.2-29.8-3.7-32.8-1.4-66.5 0.2-99.4 0.2-61.4 0.2-123.1-1.7-184.4-3.7-21.2-0.7-41.4-6.8-62.6-8-13.7-0.8-27.4-0.2-41.1-0.2-58.4 0.1-116.9-3.9-175-3.3 24.4 3.8 48.2 8.5 69.2 18.9 8.7 4.2 9 8.1 13.2 12.5 11.6 12.1 39.6 20.2 56.8 27.1q-10.1-4.1-21.6-3.7 1.7 7.8 15.3 9.3 16.2 6.2 26.3 17.1c-16 2.1-31.4 0.1-47.4 2.4 4.6 5 14.4 18.1 8.1 24.1-5.6 5.2-30.2 5.1-34.3 5.3-16.6 0.8-33.3 1-49.9 0.9-39.6-0.1-79.2-0.1-118.7-0.1-25.9 0-51.8-0.1-77.6-0.1-5 0-10.4-0.9-15.3 0.1-9 2-10.8 7-19.7 10.3-6.6 2.4-16.3 1.7-23.2 1.9-23.9 0.5-48-0.7-71.9-0.6-14.8 0.1-32.3-1.8-35.9 10.1-2.1 7.2 5.8 10.4-5.8 13.6-8 2.3-24.8 0.2-32.5 0.2-16.1-0.1-32.2 0-48.3 0-26.7 0-62.2-4.7-87.9 0.9-3.7 0.8-6.9 1.4-10 1.7h3747.1z"/>
		<path id="&lt;Path&gt;" class="s9" d="m4057.5 1457.7c-27.7-5.3-77.9-22.4-107-13.9-4.9 1.5-7.8 5.2-13 6.5-18.1 4.7-46.3 0.8-65.2 0.8-21 0-42.2-0.6-63.1-0.3-27.9 0.4-54.7 7.6-82.7 8.6-15.2 0.5-30.7-0.4-45.9-0.4-18.1 0-47.3-3.9-64.8 0.4-8.1 1.9-14.6 5.4-23.4 7.5-26.7 6.2-54.3 7.4-82.2 7.9-35.2 0.6-70.5 0-105.7 0-67.3 0-133.1 0.6-199.6-8.5-50.8-7.1-100.6-19.3-151.4-25.8-19.8-2.5-39.7-1.4-59.6-1.2-54.5 0.3-109-0.1-163.5-0.1-57.4 0-113.3 8.6-171 8.1-31.3-0.2-62.6-0.2-93.8-0.2-22.8 0-45.3 1.4-67.3-3.3-46.4-10-106.1-33.7-156.7-23.8q-0.4 5-0.6 10.1c-14 4.9-49.3-11-62.1-14-17-3.9-28.5-5-45.8-4.6-13.5 0.3-12 0.9-18.2 9.7-5.1 7.3-9 16.5-21.6 18.6-10.1 1.7-34-2.8-41.3-3.8-38.1-5.4-72.9-19-110.8-23.8-15.1-2-21.8 1.3-35.2 3.6-8.6 1.4-24.6-0.2-33-0.2-22.1 0-44.4-0.6-66.5 0-17.2 0.4-32.3 4.1-50.1 4-38.2-0.2-80.4 3.7-118.3-0.5-20.5-2.2-36.9-10.9-56.3-14.8-11.5-2.3-33.1-7.2-44.6-4-0.2 15-7 16.1-28.2 15.4-26.8-0.8-51.3-8.3-78.4-8.1-13.8 0.1-29.1 1.4-42.8 0.5-26.4-1.9-47.1-15.7-74.4-16.5-32.4-0.9-63.8 1.4-95.6-4.5-33.8-6.3-73.4-3.4-109.1-3.1-5.8 0-12.4 0.9-18.2 0.5-14-0.9-21.3-9.5-33.1-11.9-9.7-1.9-22.1-0.4-32.2-0.4-14.3-0.1-20.9-0.4-32.4 4.6-34.1 14.7-58.2 37.1-100.8 42.1-26.2 3-59.6 1.7-86.6 0.8-16.2-0.6-26.6-12.2-44.8-15.3-11.9-2-32.1-4.1-35 6.9-11.8-0.1-21.7-9.4-35-10.8-8-0.9-15.6-0.2-23.3-1.6-17-3.1-32.7-3.1-50.9-3.1-15.7 0-24.2-0.5-37.8-3.9-8.6-2.2-22.2-3.8-31-4.3-12.8-0.5-16.6 2.5-26.8 3.9-16.1 2.4-34.2-0.5-50.7 0.3-8.1 0.4-15.5 4.4-22.9 4.4-5.1 0-11.1-3.2-15.9-4.3-21.3-5-44.3-6.5-65.2-11.8-11.1-2.9-17.1-1.9-28.1-3.8-9-1.6-13.8-3.7-11.9-11.5-23.4-6.4-56.3 1.9-81.1-1.4 8.3-5.9 23.7-8.7 13.4-19.1q-20.9-4.4-42.6-5.9-20-2.3-40.2-3.5c-17.9-1.4-36.1-1.1-53.9-3q0.7-3.2 1.1-6.4c-25.9-5.5-64.5-0.8-90.9-0.7-12.1 0-42.6 3.5-55.8-1.8-7.1-2.8-11.1-7.3-18.5-10.2-7.6-2.9-19.5-2.5-17.1-10.9-11.9-3.5-26.3-4.5-40.5-4.8v184.2h4224.7q0 0-0.1 0c-56.6-3.2-112.3-13.2-167.1-23.6z"/>
		<path id="&lt;Path&gt;" class="s10" d="m7858.5 1385.3q-35.4-9.3-70.3-19.4c-19.7-5.6-40.2-10.9-59.2-17.7-9.6-3.5-16.6-8.5-26.4-12-12.9-4.6-26-8.4-39.3-12.2l-1904.5-80.4c0 0-509.2-31.6-1127.9-65.1-35.9 0.2-72.3 1.4-107.7-2-31.4-3-61.8-3.2-93.3-3.2q-101.5 0-202.9 0c-28.9 0-57.9-0.1-86.8 0.1-13.2 0.1-23.9-2.3-36.1-4.6-19-3.6-41.9-2.1-61.5-3-24.9-1.2-49.8-5.8-74.4-7.6-7.3-0.6-13.3-2.5-20.8-2.7-10.1-0.3-20.4 0.1-30.6 0.1q-66.8 0-133.7 0-33.2 0-66.5 0c-9.6 0-20.4 0.8-29.8-0.6-13.2-2-26.2-4.4-40.1-4.7-11.8-0.2-22.2-1.4-33.9-2.1-8.8-0.6-15.8-2-24.1-2.9-5.4-0.6-11.2 0.9-16.5 0.2-6.6-0.8-11.2-2.5-18.1-2.7-12.4-0.3-25 0-37.4 0-7.6 0-15.7-0.3-23.3 0-8.1 0.3-5.4 1.4-9.9 2-16.2 2.2-35.1 0.6-51.7 0.6-15.2 0-30.6-0.5-45.8-0.1-9.3 0.3-17.3 2.6-26.7 2.7-10.7 0.1-21.5 0-32.3-0.1-13.8 0-30.1 0.4-43.3 3.1-3.8 0.7-6.5 3.4-9.7 4.1-3.8 0.9-8.2 0.5-12.2 0.7-24 1.2-45.9 6.9-69.5 7.3-17 0.2-32.6 4.8-49.3 5.2-13.5 0.3-24.6-1.7-37.9-3.2-49.3-5.8-99.1-9.7-149.1-9.5-47.3 0.1-94.5 0.4-141.3-5.1-29.3-3.5-60.3-7.9-90.2-4.6-16.6 1.9-31.5 2-48.4 2-11.5 0-24.9-1.3-36.1 0.6-1 0.2-6.9 1.8-7.2 1.9-2.4 1-3.3 2.7-5.6 3.7-6.8 2.6-19.2 2.4-27.1 1.2-14.8-2.1-30.8-4.1-44.8-0.4-20.2 5.2-42.5 3.1-64 3.2-1.8 0-14.6 1-16.4 0.3-4.2-1.6-3.2-3.9-5.2-6.5-3.4-4.2-7.1-3.5-9.3-7.6-1.4-2.6 2.7-5.4-0.6-8.1-3.1-2.6-14.2-1.1-18.2-1.1-12.7 0.1-24.5-0.6-37.1 1.2-8.6 1.3-17.2 3.7-25.9 4.3-27 1.7-54.9-1.4-82 0.2-16.1 1-32.1 1.5-48.2 2.2-44.3 2.1-87.4 9.8-131.1 14.8-18.1 2.2-36.7 5.2-55.1 5.4-26.1 0.3-52.1 0-78.2 0-27.3 0-53.7-3-81-5.6-30.3-2.9-60.4-11-90.8-12.5-12.4-0.6-25.3 0.3-37.7 0.3-18.5 0-37.1 0-55.6 0-9.8 0-19.4-0.2-29.1 0.2-14.6 0.6-33.2 4.5-47.5 2.5q-0.8-0.1-1.5-0.2c-557.5 31-1183.1 68.2-1474.6 85.6-27.2 13.6-55 24.1-85.8 33.7-26.6 8.4-52.5 18-80.4 23.9v5c14.2 0.3 28.6 1.3 40.5 4.8-2.4 8.4 9.5 8 17.1 10.9 7.4 2.9 11.4 7.4 18.5 10.2 13.2 5.3 43.7 1.8 55.8 1.8 26.4-0.1 65-4.8 90.9 0.7q-0.4 3.2-1.1 6.4c17.8 1.9 36 1.6 53.9 3q20.2 1.2 40.2 3.5 21.7 1.5 42.6 5.9c10.3 10.4-5.1 13.2-13.4 19.1 24.8 3.3 57.7-5 81.1 1.4-1.9 7.8 2.9 9.9 11.9 11.5 11 1.9 17 0.9 28.1 3.8 20.9 5.3 43.9 6.8 65.2 11.8 4.8 1.1 10.8 4.3 15.9 4.3 7.4 0 14.8-4 22.9-4.4 16.5-0.8 34.6 2.1 50.7-0.3 10.2-1.4 14-4.4 26.8-3.9 8.8 0.5 22.4 2.1 31 4.3 13.6 3.4 22.1 3.9 37.8 3.9 18.2 0 33.9 0 50.9 3.1 7.7 1.4 15.3 0.7 23.3 1.6 13.3 1.4 23.2 10.7 35 10.8 2.9-11 23.1-8.9 35-6.9 18.2 3.1 28.6 14.7 44.8 15.3 27 0.9 60.4 2.2 86.6-0.8 42.6-5 66.7-27.4 100.8-42.1 11.5-5 18.1-4.7 32.4-4.6 10.1 0 22.5-1.5 32.2 0.4 11.8 2.4 19.1 11 33.1 11.9 5.8 0.4 12.4-0.5 18.2-0.5 35.7-0.3 75.3-3.2 109.1 3.1 31.8 5.9 63.2 3.6 95.6 4.5 27.3 0.8 48 14.6 74.4 16.5 13.7 0.9 29-0.4 42.8-0.5 27.1-0.2 51.6 7.3 78.4 8.1 21.2 0.7 28-0.4 28.2-15.4 11.5-3.2 33.1 1.7 44.6 4 19.4 3.9 35.8 12.6 56.3 14.8 37.9 4.2 80.1 0.3 118.3 0.5 17.8 0.1 32.9-3.6 50.1-4 22.1-0.6 44.4 0 66.5 0 8.4 0 24.4 1.6 33 0.2 13.4-2.3 20.1-5.6 35.2-3.6 37.9 4.8 72.7 18.4 110.8 23.8 7.3 1 31.2 5.5 41.3 3.8 12.6-2.1 16.5-11.3 21.6-18.6 6.2-8.8 4.7-9.4 18.2-9.7 17.3-0.4 28.8 0.7 45.8 4.6 12.8 3 48.1 18.9 62.1 14q0.2-5.1 0.6-10.1c50.6-9.9 110.3 13.8 156.7 23.8 22 4.7 44.5 3.3 67.3 3.3 31.2 0 62.5 0 93.8 0.2 57.7 0.5 113.6-8.1 171-8.1 54.5 0 109 0.4 163.5 0.1 19.9-0.2 39.8-1.3 59.6 1.2 50.8 6.5 100.6 18.7 151.4 25.8 66.5 9.1 132.3 8.5 199.6 8.5 35.2 0 70.5 0.6 105.7 0 27.9-0.5 55.5-1.7 82.2-7.9 8.8-2.1 15.3-5.6 23.4-7.5 17.5-4.3 46.7-0.4 64.8-0.4 15.2 0 30.7 0.9 45.9 0.4 28-1 54.8-8.2 82.7-8.6 20.9-0.3 42.1 0.3 63.1 0.3 18.9 0 47.1 3.9 65.2-0.8 5.2-1.3 8.1-5 13-6.5 29.1-8.5 79.3 8.6 107 13.9 54.8 10.4 110.5 20.4 167.1 23.6q0.1 0 0.1 0h28.2c3.1-0.3 6.3-0.9 10-1.7 25.7-5.6 61.2-0.9 87.9-0.9 16.1 0 32.2-0.1 48.3 0 7.7 0 24.5 2.1 32.5-0.2 11.6-3.2 3.7-6.4 5.8-13.6 3.6-11.9 21.1-10 35.9-10.1 23.9-0.1 48 1.1 71.9 0.6 6.9-0.2 16.6 0.5 23.2-1.9 8.9-3.3 10.7-8.3 19.7-10.3 4.9-1 10.3-0.1 15.3-0.1 25.8 0 51.7 0.1 77.6 0.1 39.5 0 79.1 0 118.7 0.1 16.6 0.1 33.3-0.1 49.9-0.9 4.1-0.2 28.7-0.1 34.3-5.3 6.3-6-3.5-19.1-8.1-24.1 16-2.3 31.4-0.3 47.4-2.4q-10.1-10.9-26.3-17.1-13.6-1.5-15.3-9.3 11.5-0.4 21.6 3.7c-17.2-6.9-45.2-15-56.8-27.1-4.2-4.4-4.5-8.3-13.2-12.5-21-10.4-44.8-15.1-69.2-18.9 58.1-0.6 116.6 3.4 175 3.3 13.7 0 27.4-0.6 41.1 0.2 21.2 1.2 41.4 7.3 62.6 8 61.3 2 123 3.9 184.4 3.7 32.9 0 66.6-1.6 99.4-0.2 10.1 0.5 19.7 2.9 29.8 3.7 12.6 1 24.7-0.6 37.3-0.3 41.2 0.9 86.6 12.7 126.6 18 34.6 4.5 63.8 6.4 98.1 6.3 13.2 0 26.6-0.5 39.7-0.1 25.5 0.7 50.9 3.8 76.5 4.3 21.3 0.4 39.9-1.1 61.1 1.5 28.5 3.4 55.1 7.9 84 9.4 9 0.5 41.3 4.9 49.5-0.5q-0.3-7.2-3-14.1c29.2-7.5 60.7-4.5 91.3-4.4 16 0.1 30.8-0.6 46.4 1.9 49.1 8.1 102.8 5.9 153.1 6.2 13.7 0.1 85 6.9 85.8-7.4 28.1-2 56.7-0.7 84.9-0.7 18 0 41.2 3.4 58.3-0.7-11.1-9 42.6-7.4 47.2-7.5 45.7-0.7 91.6 0.2 137.4 0.3 29.5 0.1 55.6-4.8 84.3-7.6 16.7-1.6 33.9 0.1 50.7-0.1 22.3-0.3 44.3-2.2 66.5-4.1 22.2-1.8 45.7-9.4 67.8-7-3.3-7.5-15.5-15.6-29.2-21.7-11.1-2.8-21.9-5.9-32.6-9 9 0.5 21.3 4 32.6 9 36.6 9.5 75.3 17 113.5 17.4 18.5 0.1 32.3-0.4 49.7 2.4 9 1.5 17.8 1.6 26.7 3.2 12.5 2.3 24.2 7.4 37 8.9 8.6 1 17.5 0.5 26.1 2.1 22.4 4 43.4 11.7 65.5 16.5 38.2 8.2 76.1 12.9 115 17.7 33.8 4.2 73.7 6.6 110.1 10 99.2 9 200.2 21.5 300.4 22 13 0.1 33.3 1.9 45.5-1.1-13.2-5.4-29.8-7.9-44.1-11.5 24.8-9.8 60.5-3.9 88.2-3.7 27.3 0.2 54.6 1.5 81.2-3.3q-4.2-13.3-26.9-14.1z"/>
		<path id="&lt;Path&gt;" class="s5" d="m1691.8 1148.6c9.7-0.4 19.3-0.2 29.1-0.2 18.5 0 37.1 0 55.6 0 12.4 0 25.3-0.9 37.7-0.3 30.4 1.5 60.5 9.6 90.8 12.5 27.3 2.6 53.7 5.6 81 5.6 26.1 0 52.1 0.3 78.2 0 18.4-0.2 37-3.2 55.1-5.4 43.7-5 86.8-12.7 131.1-14.8 16.1-0.7 32.1-1.2 48.2-2.2 27.1-1.6 55 1.5 82-0.2 8.7-0.6 17.3-3 25.9-4.3 12.6-1.8 24.4-1.1 37.1-1.2 4 0 15.1-1.5 18.2 1.1 3.3 2.7-0.8 5.5 0.6 8.1 2.2 4.1 5.9 3.4 9.3 7.6 2 2.6 1 4.9 5.2 6.5 1.8 0.7 14.6-0.3 16.4-0.3 21.5-0.1 43.8 2 64-3.2 14-3.7 30-1.7 44.8 0.4 7.9 1.2 20.3 1.4 27.1-1.2 2.3-1 3.2-2.7 5.6-3.7 0.3-0.1 6.2-1.7 7.2-1.9 11.2-1.9 24.6-0.6 36.1-0.6 16.9 0 31.8-0.1 48.4-2 29.9-3.3 60.9 1.1 90.2 4.6 46.8 5.5 94 5.2 141.3 5.1 50-0.2 99.8 3.7 149.1 9.5 13.3 1.5 24.4 3.5 37.9 3.2 16.7-0.4 32.3-5 49.3-5.2 23.6-0.4 45.5-6.1 69.5-7.3 4-0.2 8.4 0.2 12.2-0.7 3.2-0.7 5.9-3.4 9.7-4.1 13.2-2.7 29.5-3.1 43.3-3.1 10.8 0.1 21.6 0.2 32.3 0.1 9.4-0.1 17.4-2.4 26.7-2.7 15.2-0.4 30.6 0.1 45.8 0.1 16.6 0 35.5 1.6 51.7-0.6 4.5-0.6 1.8-1.7 9.9-2 7.6-0.3 15.7 0 23.3 0 12.4 0 25-0.3 37.4 0 6.9 0.2 11.5 1.9 18.1 2.7 5.3 0.7 11.1-0.8 16.5-0.2 8.3 0.9 15.3 2.3 24.1 2.9 11.7 0.7 22.1 1.9 33.9 2.1 13.9 0.3 26.9 2.7 40.1 4.7 9.4 1.4 20.2 0.6 29.8 0.6q33.3 0 66.5 0 66.9 0 133.7 0c10.2 0 20.5-0.4 30.6-0.1 7.5 0.2 13.5 2.1 20.8 2.7 24.6 1.8 49.5 6.4 74.4 7.6 19.6 0.9 42.5-0.6 61.5 3 12.2 2.3 22.9 4.7 36.1 4.6 28.9-0.2 57.9-0.1 86.8-0.1q101.4 0 202.9 0c31.5 0 61.9 0.2 93.3 3.2 35.4 3.4 71.8 2.2 107.7 2-788.4-42.8-1754.7-88.8-2071.3-77-189 7-538 25.3-918.8 46.4q0.7 0.1 1.5 0.2c14.3 2 32.9-1.9 47.5-2.5z"/>
	</g>
	<g id="Layer 2">
		<path id="&lt;Compound Path&gt;" class="s1" d="m7938.5 1423.4v-54.7l-44.7 39.5-22.3-54.6-25.2 48.5v-42.5l-22.3 30.4-19.6-33.4v51.6l-13.9-18.2-36.3-30.4v57.7l-19.6-31.9-22.3 38-4.9 13.1-11.9 32.4-3.7-15.6v-15.3l-8.9-23-26.5-113v108.6l-12.1 27.4v-80.3l-61.4 83.2v-34.4l-16.8 22.9v-80.3l-47.5 88.9v-31.5l-16.7 45.9-16.8-120.5-14 109v-24.4l-13.9 33-14-97.5-16.8 91.8-19.5-27.3-25.2 24.4-55.8-74.6v68.8l-30.8-18.6-25.1 21.5-16.8-86-38.3 61.4-6.4-90.2-23.4 85.7-7.3-4.6v-2.2l-1.1 1.4-4.5-2.8v8.4l-16.8 21.1-13.9-4.1v-102.9l-53.1 109.3v-30.4l-30.7 60.7-30.8-97.1v69.8l-33.5-33.4v30.4h-19.5v-15.2l-14 15.2-16.8-51.6-13.9 60.7v-6.1l-5.6-15.2-16.8-200.3-24.2 213.2-0.9 2.3v-85l-48.7 69.8-12.8-18.2 10.1 22-10.1 14.4v-36.4l-16.7 24.3v-85l-47.5 94.1v-33.4l-16.8 48.6-16.8-127.5-13.9 115.3v-25.7l-14 34.9-14-103.2-16.7 97.1-19.6-28.8-25.1 25.7-22.3-31.3v-33l-16.2 10-17.4-24.6v35.3l-27.8 17.2v-54.6l-36.5 32.2-8.3-45.2-12.6 21.4-9.7-23.6-14.8 28.7-10.3 9.1v-31.7l-22.4 30.3-19.5-33.4v38.4l-12.3-30.1-9.6 18.5-28.4-23.7v28.6l-9.5 13-19.6-33.4v33.7l-5.9 10.1-8.1-10.4-36.3-30.4v9.7l-18.4-78.6v96.6l-1.1-1.9-10.9 18.5v-57.5l-43.2 58.5-24.1-102.9v101.2l-10.9 14.9v-80.3l-35.3 66.1-12.2 16.5v-25.2l-15.1 41.4v-30.1l-5.5 7.4-12.9-93.3-5.4 41.5-26.4 49.5-10.2-70.9-16.7 91.8-8.3-11.6-12.4-89-10.9 85-3.1 3v-3.4l-2.4 5.8-7.6 7.3-8.4-11.2-9.5-66.4-7.9 43.2-30.1-40.2v63.1l-3.7 3.6-27-16.5-11.9 10.2-20.9-27.9-9.1-46.8-38.3 61.5-6.4-90.2-23.5 85.6-2.6-1.7-8.6-43.9-32.4 51.9v-91.9l-11.4 23.5-0.9-12.3-8.8 32.3-23.3 47.9-4.2-2.7v8.4l-4.4 5.6v-23.8l-19 37.4-7.3-2.2v-102.9l-27.3 56.2-7.9-25v41.2l-9.4 19.3-8.5-8.5v-4.3l-1.5 2.9-14.1-14.1v30.3h-19.6v-15.2l-10.1 11-16.2-51.3v17.6l-4.4-13.7-11.5 50-6.6-6.5-1.5-4-16.7-200.3-24.2 213.2-1 2.2v-84.9l-39.5 56.6-14.7-175.9-21.8 191.9-2.2 3.2v-84.9l-34.1 67.5-13.4 19.2v-26l-7.6 21.9-7.5-10.7 6.4 14-6.4 18.6v-32.6l-5.5 8-12.9-98.1-5.2 43-26.6 52.7-10.1-74.5-16.8 97.1-8.2-12.1-12.5-95-11 90.7-3 3.1v-4.2l-2.8 7.1-7.2 7.4-8.3-11.7-9.6-71.1-8 46.2-30-42.3v66l-4 4.2-26.7-17.1-11.6 10.5-21.3-30.2-9-48.6-44.7 75.9-9.4-6.3v-34.1l-17.9 15.8-7.4-40-26.8 45.6-14.9-36.5-25.2 48.5v-42.5l-22.3 30.4-19.6-33.4v51.6l-14-18.2-36.3-30.4v57.7l-19.5-31.9-22.4 38-4.8 13.1-11.9 32.4-3.7-15.6v-15.3l-9-23-26.5-113v108.6l-12 27.4v-80.3l-61.5 83.2v-34.4l-16.7 22.9v-80.3l-47.5 88.9v-31.5l-16.8 45.9-16.7-120.5-14 109v-24.4l-14 33-13.9-97.5-16.8 91.8-19.6-27.3-25.1 24.4-55.9-74.6v68.8l-30.7-18.6-25.1 21.5-16.8-86-38.3 61.4-6.4-90.2-23.4 85.7-7.3-4.6v-2.2l-1.2 1.4-4.4-2.8v8.4l-16.8 21.1-14-4.1v-102.9l-30.3 62.5-56.8 37.2v-55.1l-20.6 19.3-6.8-21.4v27.7l-15.1 14.2-21.3-55.2-23.9 49v-42.8l-21 30.1-2.5-7.8-0.7 3-15.7-28.4v52.1l-4.8-6.7-15.1-180.9-16.9 148.4-8.3-7.4v-10.5l-48.7 69.8-12.7-18.2 10.1 22-10.1 14.4v-36.4l-8.9 12.9-0.3-0.6-7.6-34.5v-38.5l-5.9 11.7-11.6-52.7v75.8l-11.5 22.7v-42.3l-40.1 57.5-11.9-90.9-10.8 88.8-3.2 4.7v-3.9l-3.7 9.4-4.7 6.8v-81.1l-15 29.8-4.5-33.2-11.1 64.1-11.9 23.7-2.7-3.9v-22.6l-5.2 15-5.4-8-9.3 9.4-12-91.6-11.7 96.9-1.6-2.3v-9.3l-2.4 6-18-25.5-6.2-45.6-5.1 29.7-14.7-20.9v72.9l-6.2-4-8.5-12.6-4.3 4.4-11.8-7.5-16.7 15.1-13.2-18.7-12-64.7-15.4 26.1-3.7-5.3v11.6l-24.7 42-4.5-3-1.3 1.2-30.1-20.2-8.5-46.1-36.5 62-6-91-22.3 86.4-7-4.6v-2.2l-1 1.5-4.3-2.9v8.5l-16 21.3-13.2-4.2v-103.8l-50.5 110.3v-30.7l-29.3 61.3-29.2-98v70.4l-31.9-33.7v30.7h-18.6v-15.4l-13.3 15.4-15.9-52.1-13.3 61.2v-6.1l-5.3-15.3-16-202.1-23 215.1-0.9 2.3v-85.7l-46.3 70.3-12.2-18.3 9.6 22.2-9.6 14.6v-36.8l-15.9 24.5v-85.7l-45.2 94.9v-33.7l-16 49-15.9-128.6-13.3 116.4v-26.1l-13.3 35.3-13.3-104.1-15.9 97.9-18.6-29.1-24 26.1-53.1-79.6v73.5l-29.3-20-14.2 13.8v-3-10.5-27.8-10.5l-18.2 11.9-7.4-42.7-32.9 59.1v-34.6-10.5l-42.2 39.4-0.6-0.4-21-54.3-23.9 49v-32.4-10.5l-21.3 30.6-18.6-33.7v10.5 41.6l-13.3-18.4-34.5-30.6v10.5 23.5l-5.1-13.7-7 17-6.5-11.3-10.4 18.7v-47.5l-39.3 56.4-24.8-111.8v10.5 102.2l-10.3 15v-81l-33.6 66.7-11.6 16.6v-25.5l-14.4 41.8v-30.4l-5.1 7.5-12.4-94.1-5.1 41.9-25.1 49.9-9.7-71.5-15.9 92.6-7.9-11.7-11.8-89.8-10.4 85.7-2.9 3.1v-3.5l-2.3 5.8-7.2 7.5-8-11.3-9.1-67.1-7.5 43.6-28.6-40.5v63.6l-3.5 3.6-25.7-16.5-11.3 10.2-19.9-28.2-8.7-47.1-36.4 62-6.1-91-22.3 86.4-2.6-1.7-8.1-44.4-30.8 52.4v-92.7l-10.9 23.7-0.8-12.4-8.4 32.6-22.2 48.3-4-2.7v8.5l-4.2 5.6v-24l-18 37.7-7-2.2v-103.8l-26 56.7-7.5-25.2v41.6l-8.9 19.4-8.1-8.6v-4.3l-1.4 2.9-13.5-14.2v30.6h-18.6v-15.3l-9.6 11-15.4-51.7v17.7l-4.2-13.8-11 50.5-6.2-6.6-1.4-4.1-16-202-23 215-0.9 2.3v-85.7l-37.6 57.1-14-177.4-20.7 193.6-2.1 3.3v-85.8l-32.5 68.2-12.7 19.3v-26.2l-7.2 22.1-7.2-10.8 6.1 14.1-6.1 18.7v-32.8l-5.2 8.1-12.3-99-5 43.4-25.3 53.2-9.6-75.2-15.9 98-7.8-12.3-11.9-95.8-10.5 91.5-2.8 3.1v-4.3l-2.8 7.3-6.8 7.4-7.8-11.8-9.2-71.7-7.6 46.6-28.5-42.7v66.6l-3.9 4.3-25.3-17.3-11.1 10.6-20.3-30.5-8.5-49-42.5 76.5-9-6.3v-34.3l-17 15.9-7-40.4-25.6 46-14.2-36.9-23.9 49v-42.8l-21.3 30.6-18.6-33.7v52.1l-13.3-18.4-34.5-30.6v58.1l-18.6-32.1-21.3 38.3-4.6 13.2-11.3 32.7-3.5-15.7v-15.5l-8.6-23.2-25.2-114v109.5l-11.4 27.7v-81l-58.5 83.9v-34.7l-15.9 23.2v-81.1l-45.2 89.7v-31.8l-16 46.3-15.9-121.5-13.3 109.9v-24.6l-13.3 33.3-13.3-98.4-15.9 92.6-18.6-27.5-23.9 24.6-53.2-75.2v69.4l-29.2-18.8-24 21.7-15.9-86.8-36.5 62-6-91-22.3 86.4-7-4.6v-2.2l-1.1 1.5-4.2-2.9v8.5l-16 21.3-13.2-4.2v-103.8l-50.5 110.3v-30.7l-29.3 61.3-29.2-98v70.4l-31.9-33.7v30.7h-18.6v-15.4l-13.3 15.4-15.9-52.1-13.3 61.2v-6.1l-5.4-15.3-15.9-202.1-23 215.1-0.9 2.3v-85.7l-46.3 70.3-12.2-18.3 9.6 22.2-9.6 14.6v-36.8l-15.9 24.5v-85.7l-45.2 94.9v-33.7l-16 49-15.9-128.6-13.3 116.4v-26.1l-13.3 35.3-13.3-104.1-15.9 97.9-18.6-29.1-24 26.1-53.1-79.6v73.5l-29.3-20-23.9 23-15.9-91.8-7.4 13.2v124.5h355.6 69.1 231.2 45.2 412.8 36.4 24.7 108.9 159.6 265.7 69.1 231.2 45.2 412.8 36.4 24.7 165.8 102.7 322.6 69.1 231.2 45.2 39.1 373.7 36.4 24.7 12.2 72.6 183.7 59.4 47.5 433.8 38.3 26 114.4 167.8 279.2 72.6 243.1 47.5 433.9 38.2 26 174.3 107.9 339 72.7 243 47.5 433.9 38.2 26 282.2v-57.6-38zm-7311.9 24v-11.8l4.1 6.4zm1353.6-4.9v-6.9l1.9 2.9zm1410.5 4.9v-11.7l4.1 6.3zm845.5 0.3v-11.7l4.3 6.3zm1422.7-4.8v-6.9l2 2.9zm1482.5 4.9v-11.7l4.3 6.3z"/>
	</g>
	<g id="Layer 3">
	</g>
</svg>